<svg xmlns="http://www.w3.org/2000/svg" width="640" height="520" viewBox="0 0 640 520" role="img" aria-labelledby="title desc">
  <title id="title">Nylon syringe filter canister</title>
  <desc id="desc">A laboratory canister filled with yellow nylon syringe filters and a product label.</desc>
  <defs>
    <linearGradient id="glass" x1="0" x2="1" y1="0" y2="1">
      <stop offset="0" stop-color="#ffffff" stop-opacity=".92"/>
      <stop offset=".55" stop-color="#eef6fb" stop-opacity=".55"/>
      <stop offset="1" stop-color="#ffffff" stop-opacity=".82"/>
    </linearGradient>
    <linearGradient id="lid" x1="0" x2="1">
      <stop offset="0" stop-color="#eef3f8"/>
      <stop offset="1" stop-color="#ffffff"/>
    </linearGradient>
    <filter id="shadow" x="-20%" y="-20%" width="140%" height="150%">
      <feDropShadow dx="0" dy="18" stdDeviation="18" flood-color="#153f70" flood-opacity=".18"/>
    </filter>
  </defs>
  <rect width="640" height="520" fill="#f7fbfd"/>
  <g opacity=".3" stroke="#b7d7e8" stroke-width="3" fill="none">
    <path d="M46 415h548"/>
    <path d="M82 84v116m0 0h30m35-126v108m0 0h34m328-100v125m0 0h34m42-98v98"/>
    <path d="M432 116c22 18 35 46 35 83"/>
  </g>
  <g filter="url(#shadow)">
    <ellipse cx="351" cy="445" rx="164" ry="30" fill="#153f70" opacity=".14"/>
    <path d="M213 109h277c17 0 31 13 33 29l20 276c2 24-17 44-41 44H201c-24 0-43-20-41-44l20-276c2-16 16-29 33-29z" fill="url(#glass)" stroke="#dbe7ef" stroke-width="5"/>
    <path d="M203 75h298c15 0 27 12 27 27v31H176v-31c0-15 12-27 27-27z" fill="url(#lid)" stroke="#d6e3ed" stroke-width="5"/>
    <path d="M198 95h306" stroke="#c7d8e5" stroke-width="10" stroke-linecap="round" stroke-dasharray="18 16"/>
    <path d="M183 135h337" stroke="#ffffff" stroke-width="9" opacity=".85"/>
  </g>
  <g transform="translate(198 153)">
    <g fill="#ffc526" stroke="#dc9b00" stroke-width="6" opacity=".92">
      <circle cx="43" cy="55" r="31"/><circle cx="43" cy="55" r="15" fill="#fff7df"/>
      <circle cx="119" cy="32" r="31"/><circle cx="119" cy="32" r="15" fill="#fff7df"/>
      <circle cx="203" cy="57" r="31"/><circle cx="203" cy="57" r="15" fill="#fff7df"/>
      <circle cx="286" cy="35" r="31"/><circle cx="286" cy="35" r="15" fill="#fff7df"/>
      <circle cx="70" cy="129" r="31"/><circle cx="70" cy="129" r="15" fill="#fff7df"/>
      <circle cx="156" cy="109" r="31"/><circle cx="156" cy="109" r="15" fill="#fff7df"/>
      <circle cx="250" cy="132" r="31"/><circle cx="250" cy="132" r="15" fill="#fff7df"/>
      <circle cx="35" cy="216" r="31"/><circle cx="35" cy="216" r="15" fill="#fff7df"/>
      <circle cx="121" cy="204" r="31"/><circle cx="121" cy="204" r="15" fill="#fff7df"/>
      <circle cx="211" cy="217" r="31"/><circle cx="211" cy="217" r="15" fill="#fff7df"/>
      <circle cx="296" cy="198" r="31"/><circle cx="296" cy="198" r="15" fill="#fff7df"/>
    </g>
    <g stroke="#f8f0d2" stroke-width="10" stroke-linecap="round" opacity=".85">
      <path d="M42 25l20-21M133 5l26-20M216 31l30-22M292 8l29-24M65 101l25-23M158 81l24-22M249 104l29-20M36 187l23-24M119 174l22-23M208 188l26-22M296 169l22-24"/>
    </g>
  </g>
  <g transform="translate(235 265)">
    <rect x="0" y="0" width="238" height="118" rx="10" fill="#ffffff" stroke="#d9e4ec" stroke-width="3"/>
    <path d="M0 88h238v20a10 10 0 0 1-10 10H10A10 10 0 0 1 0 108z" fill="#153f70"/>
    <text x="24" y="34" font-family="Arial, sans-serif" font-size="22" font-weight="700" fill="#1d2733">Syringe Filter</text>
    <text x="24" y="60" font-family="Arial, sans-serif" font-size="15" fill="#1d2733">25mm Nylon 0.45um</text>
    <text x="24" y="81" font-family="Arial, sans-serif" font-size="13" fill="#1d2733">NON-STERILE</text>
    <text x="24" y="107" font-family="Arial, sans-serif" font-size="14" font-weight="700" fill="#ffffff">LABORATORY SAMPLE PREP</text>
    <g transform="translate(160 56)" stroke="#111" stroke-width="3">
      <path d="M0 0v25M7 0v25M15 0v25M22 0v25M31 0v25M39 0v25M47 0v25"/>
    </g>
  </g>
  <g transform="translate(58 56)">
    <rect x="0" y="0" width="232" height="60" rx="10" fill="#ffffff" opacity=".92"/>
    <text x="20" y="38" font-family="Arial, sans-serif" font-size="24" font-weight="700" fill="#67389b">SYRINGE FILTERS</text>
  </g>
  <g transform="translate(58 126)">
    <rect width="190" height="48" rx="12" fill="#ff7a00"/>
    <text x="24" y="32" font-family="Arial, sans-serif" font-size="25" font-weight="700" fill="#ffffff">25mm - 0.45um</text>
  </g>
</svg>
